<?xml version="1.0" standalone="no"?>
<!DOCTYPE svg PUBLIC "-//W3C//DTD SVG 20010904//EN"
 "http://www.w3.org/TR/2001/REC-SVG-20010904/DTD/svg10.dtd">
<svg version="1.0" xmlns="http://www.w3.org/2000/svg"
 width="260.000000pt" height="280.000000pt" viewBox="0 0 260.000000 280.000000"
 preserveAspectRatio="xMidYMid meet">

<g transform="translate(0.000000,280.000000) scale(0.100000,-0.100000)"
fill="#000000" stroke="none">
<path d="M743 2477 c-18 -6 -33 -15 -33 -19 0 -4 -6 -8 -13 -8 -31 0 -37 -49
-37 -321 0 -293 5 -328 54 -350 l25 -12 -35 -32 -34 -32 0 -545 c0 -532 0
-546 20 -571 11 -14 29 -29 40 -32 12 -4 20 -17 22 -38 l3 -32 70 0 70 0 3 33
3 32 239 0 239 0 3 -32 3 -33 73 -3 72 -3 0 35 c0 30 4 35 31 41 19 4 38 19
50 38 18 31 19 57 19 560 0 454 -2 532 -15 557 -9 17 -19 30 -23 30 -4 0 -13
4 -20 9 -10 6 -4 17 22 43 l36 36 0 300 0 299 -25 25 c-14 14 -39 28 -56 32
-54 11 -771 4 -806 -7z m834 -49 c23 -21 23 -22 23 -305 0 -270 -1 -284 -20
-303 -19 -19 -33 -20 -430 -20 -397 0 -411 1 -430 20 -19 19 -20 33 -20 305 0
272 1 286 20 305 19 19 33 20 427 20 404 0 407 0 430 -22z m3 -727 c15 -30 14
-1083 -2 -1099 -9 -9 -118 -12 -429 -12 l-418 0 -15 22 c-14 20 -16 88 -16
543 0 455 2 523 16 543 l15 22 419 0 c404 0 420 -1 430 -19z m-712 -1170 c2
-7 -12 -11 -42 -11 -40 0 -55 7 -42 21 9 9 80 1 84 -10z m632 -1 c0 -5 -20
-10 -45 -10 -25 0 -45 5 -45 10 0 6 20 10 45 10 25 0 45 -4 45 -10z"/>
<path d="M977 2170 c-22 -17 -26 -18 -31 -4 -3 8 -10 12 -16 9 -7 -4 -6 -13 1
-27 9 -18 8 -19 -10 -13 -12 4 -21 2 -21 -4 0 -6 4 -11 10 -11 5 0 7 -7 4 -15
-4 -9 0 -15 7 -15 8 -1 23 -15 34 -33 18 -28 26 -32 72 -35 45 -3 53 0 72 24
30 38 27 79 -8 115 -35 35 -77 38 -114 9z m63 -10 c-13 -9 -8 -14 11 -12 9 2
-1 -40 -14 -55 -5 -7 -18 -13 -27 -13 -10 0 -21 -6 -24 -12 -4 -9 -5 -8 -4 2
1 8 -3 23 -7 34 -10 24 5 49 36 57 36 10 46 10 29 -1z"/>
<path d="M1249 2161 c-35 -35 -38 -77 -8 -115 17 -22 28 -26 69 -26 43 0 52 4
72 30 12 17 30 30 40 30 21 0 24 16 6 23 -10 4 -10 6 0 6 6 1 12 8 12 16 0 8
-6 12 -14 9 -10 -4 -12 2 -8 22 3 19 1 25 -7 20 -6 -4 -11 -14 -11 -22 0 -12
-8 -9 -31 10 -41 35 -83 34 -120 -3z m71 -1 c-13 -9 -8 -14 11 -12 9 2 -1 -40
-14 -55 -5 -7 -18 -13 -28 -13 -11 0 -19 -4 -19 -10 0 -5 -5 -10 -12 -10 -9 0
-9 3 -1 11 9 9 9 16 0 30 -15 24 0 51 34 60 36 10 46 10 29 -1z"/>
<path d="M749 2167 c-24 -12 -24 -15 -27 -162 -3 -143 -2 -151 19 -167 28 -23
44 -23 69 2 18 18 20 33 20 158 0 120 -2 141 -17 154 -30 25 -38 27 -64 15z
m46 -166 c-8 -131 -10 -145 -26 -136 -10 7 -13 258 -3 268 3 3 13 3 21 0 13
-5 14 -25 8 -132z"/>
<path d="M1205 2009 c-5 -7 -21 -9 -46 -5 -40 6 -67 -11 -31 -21 11 -2 25 -16
31 -29 6 -14 19 -24 31 -24 23 0 50 37 46 64 -3 23 -21 32 -31 15z m13 -36
c-4 -24 -48 -30 -48 -7 0 13 3 14 15 4 12 -10 15 -10 15 4 0 9 5 16 11 16 6 0
9 -8 7 -17z"/>
<path d="M747 1602 c-14 -15 -17 -42 -17 -159 0 -123 2 -142 18 -156 25 -22
48 -21 72 3 18 18 20 33 20 158 0 122 -2 141 -18 155 -24 22 -55 21 -75 -1z
m54 -152 c-1 -69 -5 -128 -8 -133 -15 -25 -23 20 -23 134 0 119 2 130 18 127
15 -3 17 -16 13 -128z"/>
<path d="M925 1286 c-37 -37 -48 -131 -15 -131 9 0 16 11 18 30 6 62 22 85 58
85 38 0 50 -15 60 -79 4 -25 12 -41 20 -41 22 0 21 68 -2 112 -28 53 -98 65
-139 24z"/>
<path d="M1266 1280 c-27 -32 -42 -89 -32 -116 10 -27 31 -9 37 33 7 52 24 73
59 73 36 0 49 -17 56 -74 9 -65 34 -63 34 3 0 68 -35 111 -90 111 -30 0 -44
-6 -64 -30z"/>
<path d="M1034 1039 c-3 -6 2 -23 13 -37 21 -29 75 -41 96 -23 8 6 18 6 27 1
8 -6 29 -10 47 -10 34 0 63 29 63 62 0 24 -27 23 -35 -1 -11 -37 -65 -33 -65
5 0 23 -34 16 -45 -8 -6 -13 -19 -23 -30 -23 -11 0 -24 10 -30 23 -10 24 -30
29 -41 11z"/>
</g>
</svg>
